<?xml version="1.0" encoding="UTF-8" standalone="no"?>
<!DOCTYPE svg PUBLIC "-//W3C//DTD SVG 1.1//EN"
 "http://www.w3.org/Graphics/SVG/1.1/DTD/svg11.dtd">
<!-- Generated by graphviz version 2.40.1 (20161225.0304)
 -->
<!-- Title: G Pages: 1 -->
<svg width="803pt" height="764pt"
 viewBox="0.00 0.00 802.83 764.00" xmlns="http://www.w3.org/2000/svg" xmlns:xlink="http://www.w3.org/1999/xlink">
<g id="graph0" class="graph" transform="scale(1 1) rotate(0) translate(4 760)">
<title>G</title>
<polygon fill="#ffffff" stroke="transparent" points="-4,4 -4,-760 798.8323,-760 798.8323,4 -4,4"/>
<!-- donate_to_tom -->
<g id="node1" class="node">
<title>donate_to_tom</title>
<ellipse fill="none" stroke="#000000" cx="302.1387" cy="-738" rx="68.9448" ry="18"/>
<text text-anchor="middle" x="302.1387" y="-733.8" font-family="Times,serif" font-size="14.00" fill="#000000">donate_to_tom</text>
</g>
<!-- reserve_blathers_tent -->
<g id="node2" class="node">
<title>reserve_blathers_tent</title>
<ellipse fill="none" stroke="#000000" cx="302.1387" cy="-666" rx="93.7359" ry="18"/>
<text text-anchor="middle" x="302.1387" y="-661.8" font-family="Times,serif" font-size="14.00" fill="#000000">reserve_blathers_tent</text>
</g>
<!-- donate_to_tom&#45;&gt;reserve_blathers_tent -->
<g id="edge1" class="edge">
<title>donate_to_tom&#45;&gt;reserve_blathers_tent</title>
<path fill="none" stroke="#000000" d="M302.1387,-719.8314C302.1387,-712.131 302.1387,-702.9743 302.1387,-694.4166"/>
<polygon fill="#000000" stroke="#000000" points="305.6388,-694.4132 302.1387,-684.4133 298.6388,-694.4133 305.6388,-694.4132"/>
</g>
<!-- blathers_tent -->
<g id="node3" class="node">
<title>blathers_tent</title>
<ellipse fill="none" stroke="#000000" cx="302.1387" cy="-594" rx="60.8313" ry="18"/>
<text text-anchor="middle" x="302.1387" y="-589.8" font-family="Times,serif" font-size="14.00" fill="#000000">blathers_tent</text>
</g>
<!-- reserve_blathers_tent&#45;&gt;blathers_tent -->
<g id="edge2" class="edge">
<title>reserve_blathers_tent&#45;&gt;blathers_tent</title>
<path fill="none" stroke="#000000" d="M302.1387,-647.8314C302.1387,-640.131 302.1387,-630.9743 302.1387,-622.4166"/>
<polygon fill="#000000" stroke="#000000" points="305.6388,-622.4132 302.1387,-612.4133 298.6388,-622.4133 305.6388,-622.4132"/>
</g>
<!-- shovel -->
<g id="node4" class="node">
<title>shovel</title>
<ellipse fill="none" stroke="#000000" cx="233.1387" cy="-522" rx="36.4975" ry="18"/>
<text text-anchor="middle" x="233.1387" y="-517.8" font-family="Times,serif" font-size="14.00" fill="#000000">shovel</text>
</g>
<!-- blathers_tent&#45;&gt;shovel -->
<g id="edge3" class="edge">
<title>blathers_tent&#45;&gt;shovel</title>
<path fill="none" stroke="#000000" d="M285.4357,-576.5708C276.5365,-567.2847 265.4618,-555.7285 255.7978,-545.6442"/>
<polygon fill="#000000" stroke="#000000" points="258.188,-543.0799 248.742,-538.2817 253.1341,-547.9233 258.188,-543.0799"/>
</g>
<!-- donate_to_blathers -->
<g id="node5" class="node">
<title>donate_to_blathers</title>
<ellipse fill="none" stroke="#000000" cx="372.1387" cy="-522" rx="84.5324" ry="18"/>
<text text-anchor="middle" x="372.1387" y="-517.8" font-family="Times,serif" font-size="14.00" fill="#000000">donate_to_blathers</text>
</g>
<!-- blathers_tent&#45;&gt;donate_to_blathers -->
<g id="edge4" class="edge">
<title>blathers_tent&#45;&gt;donate_to_blathers</title>
<path fill="none" stroke="#000000" d="M319.0837,-576.5708C327.725,-567.6827 338.3882,-556.7148 347.8831,-546.9486"/>
<polygon fill="#000000" stroke="#000000" points="350.4021,-549.3786 354.8634,-539.7689 345.3831,-544.4991 350.4021,-549.3786"/>
</g>
<!-- museum -->
<g id="node6" class="node">
<title>museum</title>
<ellipse fill="none" stroke="#000000" cx="309.1387" cy="-450" rx="43.5214" ry="18"/>
<text text-anchor="middle" x="309.1387" y="-445.8" font-family="Times,serif" font-size="14.00" fill="#000000">museum</text>
</g>
<!-- donate_to_blathers&#45;&gt;museum -->
<g id="edge5" class="edge">
<title>donate_to_blathers&#45;&gt;museum</title>
<path fill="none" stroke="#000000" d="M356.5657,-504.2022C348.8226,-495.3531 339.3373,-484.5127 330.8897,-474.8583"/>
<polygon fill="#000000" stroke="#000000" points="333.3179,-472.3182 324.0988,-467.0972 328.0498,-476.9278 333.3179,-472.3182"/>
</g>
<!-- vaulting_pole -->
<g id="node7" class="node">
<title>vaulting_pole</title>
<ellipse fill="none" stroke="#000000" cx="435.1387" cy="-450" rx="64.2881" ry="18"/>
<text text-anchor="middle" x="435.1387" y="-445.8" font-family="Times,serif" font-size="14.00" fill="#000000">vaulting_pole</text>
</g>
<!-- donate_to_blathers&#45;&gt;vaulting_pole -->
<g id="edge6" class="edge">
<title>donate_to_blathers&#45;&gt;vaulting_pole</title>
<path fill="none" stroke="#000000" d="M387.7117,-504.2022C395.3409,-495.4832 404.6615,-484.8311 413.0144,-475.2849"/>
<polygon fill="#000000" stroke="#000000" points="415.7937,-477.4236 419.7448,-467.593 410.5257,-472.814 415.7937,-477.4236"/>
</g>
<!-- nooks_cranny -->
<g id="node10" class="node">
<title>nooks_cranny</title>
<ellipse fill="none" stroke="#000000" cx="298.1387" cy="-378" rx="65.4169" ry="18"/>
<text text-anchor="middle" x="298.1387" y="-373.8" font-family="Times,serif" font-size="14.00" fill="#000000">nooks_cranny</text>
</g>
<!-- museum&#45;&gt;nooks_cranny -->
<g id="edge8" class="edge">
<title>museum&#45;&gt;nooks_cranny</title>
<path fill="none" stroke="#000000" d="M306.3629,-431.8314C305.1865,-424.131 303.7876,-414.9743 302.4801,-406.4166"/>
<polygon fill="#000000" stroke="#000000" points="305.922,-405.7699 300.9518,-396.4133 299.0023,-406.8272 305.922,-405.7699"/>
</g>
<!-- art_gallery -->
<g id="node15" class="node">
<title>art_gallery</title>
<ellipse fill="none" stroke="#000000" cx="434.1387" cy="-378" rx="52.7257" ry="18"/>
<text text-anchor="middle" x="434.1387" y="-373.8" font-family="Times,serif" font-size="14.00" fill="#000000">art_gallery</text>
</g>
<!-- museum&#45;&gt;art_gallery -->
<g id="edge15" class="edge">
<title>museum&#45;&gt;art_gallery</title>
<path fill="none" stroke="#000000" d="M334.7359,-435.256C353.0284,-424.7195 377.8916,-410.3984 398.1754,-398.7149"/>
<polygon fill="#000000" stroke="#000000" points="399.9249,-401.7463 406.8433,-393.7222 396.431,-395.6806 399.9249,-401.7463"/>
</g>
<!-- fences -->
<g id="node24" class="node">
<title>fences</title>
<ellipse fill="none" stroke="#000000" cx="541.1387" cy="-378" rx="35.8921" ry="18"/>
<text text-anchor="middle" x="541.1387" y="-373.8" font-family="Times,serif" font-size="14.00" fill="#000000">fences</text>
</g>
<!-- museum&#45;&gt;fences -->
<g id="edge23" class="edge">
<title>museum&#45;&gt;fences</title>
<path fill="none" stroke="#000000" d="M342.6773,-438.243C349.1128,-436.0911 355.8161,-433.9208 362.1387,-432 421.1434,-414.075 437.6307,-415.4853 496.1387,-396 498.833,-395.1027 501.5991,-394.1291 504.3711,-393.115"/>
<polygon fill="#000000" stroke="#000000" points="505.6178,-396.3855 513.7233,-389.5627 503.1322,-389.8417 505.6178,-396.3855"/>
</g>
<!-- shop_with_mabel -->
<g id="node8" class="node">
<title>shop_with_mabel</title>
<ellipse fill="none" stroke="#000000" cx="300.1387" cy="-234" rx="79.8991" ry="18"/>
<text text-anchor="middle" x="300.1387" y="-229.8" font-family="Times,serif" font-size="14.00" fill="#000000">shop_with_mabel</text>
</g>
<!-- able_sisters -->
<g id="node9" class="node">
<title>able_sisters</title>
<ellipse fill="none" stroke="#000000" cx="300.1387" cy="-162" rx="56.1724" ry="18"/>
<text text-anchor="middle" x="300.1387" y="-157.8" font-family="Times,serif" font-size="14.00" fill="#000000">able_sisters</text>
</g>
<!-- shop_with_mabel&#45;&gt;able_sisters -->
<g id="edge7" class="edge">
<title>shop_with_mabel&#45;&gt;able_sisters</title>
<path fill="none" stroke="#000000" d="M300.1387,-215.8314C300.1387,-208.131 300.1387,-198.9743 300.1387,-190.4166"/>
<polygon fill="#000000" stroke="#000000" points="303.6388,-190.4132 300.1387,-180.4133 296.6388,-190.4133 303.6388,-190.4132"/>
</g>
<!-- label -->
<g id="node29" class="node">
<title>label</title>
<ellipse fill="none" stroke="#000000" cx="300.1387" cy="-90" rx="29.6127" ry="18"/>
<text text-anchor="middle" x="300.1387" y="-85.8" font-family="Times,serif" font-size="14.00" fill="#000000">label</text>
</g>
<!-- able_sisters&#45;&gt;label -->
<g id="edge28" class="edge">
<title>able_sisters&#45;&gt;label</title>
<path fill="none" stroke="#000000" d="M300.1387,-143.8314C300.1387,-136.131 300.1387,-126.9743 300.1387,-118.4166"/>
<polygon fill="#000000" stroke="#000000" points="303.6388,-118.4132 300.1387,-108.4133 296.6388,-118.4133 303.6388,-118.4132"/>
</g>
<!-- mabel -->
<g id="node11" class="node">
<title>mabel</title>
<ellipse fill="none" stroke="#000000" cx="298.1387" cy="-306" rx="34.769" ry="18"/>
<text text-anchor="middle" x="298.1387" y="-301.8" font-family="Times,serif" font-size="14.00" fill="#000000">mabel</text>
</g>
<!-- nooks_cranny&#45;&gt;mabel -->
<g id="edge9" class="edge">
<title>nooks_cranny&#45;&gt;mabel</title>
<path fill="none" stroke="#000000" d="M298.1387,-359.8314C298.1387,-352.131 298.1387,-342.9743 298.1387,-334.4166"/>
<polygon fill="#000000" stroke="#000000" points="301.6388,-334.4132 298.1387,-324.4133 294.6388,-334.4133 301.6388,-334.4132"/>
</g>
<!-- upgrade_nooks_cranny -->
<g id="node12" class="node">
<title>upgrade_nooks_cranny</title>
<ellipse fill="none" stroke="#000000" cx="101.1387" cy="-234" rx="101.2776" ry="18"/>
<text text-anchor="middle" x="101.1387" y="-229.8" font-family="Times,serif" font-size="14.00" fill="#000000">upgrade_nooks_cranny</text>
</g>
<!-- nooks_cranny&#45;&gt;upgrade_nooks_cranny -->
<g id="edge11" class="edge">
<title>nooks_cranny&#45;&gt;upgrade_nooks_cranny</title>
<path fill="none" stroke="#000000" d="M274.7666,-360.9158C239.7076,-335.2889 173.3857,-286.81 133.6333,-257.7524"/>
<polygon fill="#000000" stroke="#000000" points="135.2334,-254.5866 125.0947,-251.511 131.1025,-260.2379 135.2334,-254.5866"/>
</g>
<!-- resident_services -->
<g id="node19" class="node">
<title>resident_services</title>
<ellipse fill="none" stroke="#000000" cx="514.1387" cy="-306" rx="77.5627" ry="18"/>
<text text-anchor="middle" x="514.1387" y="-301.8" font-family="Times,serif" font-size="14.00" fill="#000000">resident_services</text>
</g>
<!-- nooks_cranny&#45;&gt;resident_services -->
<g id="edge19" class="edge">
<title>nooks_cranny&#45;&gt;resident_services</title>
<path fill="none" stroke="#000000" d="M339.7857,-364.1177C373.9965,-352.7141 422.7101,-336.4762 459.954,-324.0616"/>
<polygon fill="#000000" stroke="#000000" points="461.2652,-327.3139 469.6453,-320.8311 459.0516,-320.6731 461.2652,-327.3139"/>
</g>
<!-- town_hall -->
<g id="node20" class="node">
<title>town_hall</title>
<ellipse fill="none" stroke="#000000" cx="446.1387" cy="-162" rx="49.8194" ry="18"/>
<text text-anchor="middle" x="446.1387" y="-157.8" font-family="Times,serif" font-size="14.00" fill="#000000">town_hall</text>
</g>
<!-- nooks_cranny&#45;&gt;town_hall -->
<g id="edge31" class="edge">
<title>nooks_cranny&#45;&gt;town_hall</title>
<path fill="none" stroke="#000000" d="M313.2896,-360.3737C322.0065,-349.9983 333.0065,-336.4983 342.1387,-324 375.6982,-278.0705 410.6036,-221.6065 430.2316,-188.9169"/>
<polygon fill="#000000" stroke="#000000" points="433.4562,-190.3438 435.5816,-179.9643 427.4474,-186.753 433.4562,-190.3438"/>
</g>
<!-- mabel&#45;&gt;shop_with_mabel -->
<g id="edge10" class="edge">
<title>mabel&#45;&gt;shop_with_mabel</title>
<path fill="none" stroke="#000000" d="M298.6434,-287.8314C298.8573,-280.131 299.1116,-270.9743 299.3493,-262.4166"/>
<polygon fill="#000000" stroke="#000000" points="302.8481,-262.5066 299.6272,-252.4133 295.8508,-262.3122 302.8481,-262.5066"/>
</g>
<!-- mabel&#45;&gt;upgrade_nooks_cranny -->
<g id="edge12" class="edge">
<title>mabel&#45;&gt;upgrade_nooks_cranny</title>
<path fill="none" stroke="#000000" d="M269.4932,-295.5306C239.6154,-284.6108 192.071,-267.2342 155.1159,-253.7277"/>
<polygon fill="#000000" stroke="#000000" points="156.0765,-250.3524 145.4827,-250.2069 153.6735,-256.9271 156.0765,-250.3524"/>
</g>
<!-- ladder -->
<g id="node13" class="node">
<title>ladder</title>
<ellipse fill="none" stroke="#000000" cx="668.1387" cy="-378" rx="35.3315" ry="18"/>
<text text-anchor="middle" x="668.1387" y="-373.8" font-family="Times,serif" font-size="14.00" fill="#000000">ladder</text>
</g>
<!-- redds_shop -->
<g id="node14" class="node">
<title>redds_shop</title>
<ellipse fill="none" stroke="#000000" cx="667.1387" cy="-306" rx="55.0401" ry="18"/>
<text text-anchor="middle" x="667.1387" y="-301.8" font-family="Times,serif" font-size="14.00" fill="#000000">redds_shop</text>
</g>
<!-- ladder&#45;&gt;redds_shop -->
<g id="edge13" class="edge">
<title>ladder&#45;&gt;redds_shop</title>
<path fill="none" stroke="#000000" d="M667.8864,-359.8314C667.7794,-352.131 667.6522,-342.9743 667.5334,-334.4166"/>
<polygon fill="#000000" stroke="#000000" points="671.0331,-334.3637 667.3944,-324.4133 664.0337,-334.4609 671.0331,-334.3637"/>
</g>
<!-- art_gallery&#45;&gt;redds_shop -->
<g id="edge14" class="edge">
<title>art_gallery&#45;&gt;redds_shop</title>
<path fill="none" stroke="#000000" d="M473.4005,-365.8676C512.9862,-353.6351 574.2262,-334.7112 617.2342,-321.4211"/>
<polygon fill="#000000" stroke="#000000" points="618.4129,-324.7203 626.9338,-318.4238 616.3462,-318.0323 618.4129,-324.7203"/>
</g>
<!-- five_star -->
<g id="node16" class="node">
<title>five_star</title>
<ellipse fill="none" stroke="#000000" cx="495.1387" cy="-738" rx="44.6395" ry="18"/>
<text text-anchor="middle" x="495.1387" y="-733.8" font-family="Times,serif" font-size="14.00" fill="#000000">five_star</text>
</g>
<!-- lily_of_the_valley -->
<g id="node17" class="node">
<title>lily_of_the_valley</title>
<ellipse fill="none" stroke="#000000" cx="495.1387" cy="-666" rx="81.6828" ry="18"/>
<text text-anchor="middle" x="495.1387" y="-661.8" font-family="Times,serif" font-size="14.00" fill="#000000">lily_of_the_valley</text>
</g>
<!-- five_star&#45;&gt;lily_of_the_valley -->
<g id="edge16" class="edge">
<title>five_star&#45;&gt;lily_of_the_valley</title>
<path fill="none" stroke="#000000" d="M495.1387,-719.8314C495.1387,-712.131 495.1387,-702.9743 495.1387,-694.4166"/>
<polygon fill="#000000" stroke="#000000" points="498.6388,-694.4132 495.1387,-684.4133 491.6388,-694.4133 498.6388,-694.4132"/>
</g>
<!-- invite_three_potential_neighbors -->
<g id="node18" class="node">
<title>invite_three_potential_neighbors</title>
<ellipse fill="none" stroke="#000000" cx="656.1387" cy="-450" rx="138.8875" ry="18"/>
<text text-anchor="middle" x="656.1387" y="-445.8" font-family="Times,serif" font-size="14.00" fill="#000000">invite_three_potential_neighbors</text>
</g>
<!-- invite_three_potential_neighbors&#45;&gt;ladder -->
<g id="edge17" class="edge">
<title>invite_three_potential_neighbors&#45;&gt;ladder</title>
<path fill="none" stroke="#000000" d="M659.1668,-431.8314C660.4502,-424.131 661.9763,-414.9743 663.4026,-406.4166"/>
<polygon fill="#000000" stroke="#000000" points="666.8781,-406.8526 665.0698,-396.4133 659.9734,-405.7018 666.8781,-406.8526"/>
</g>
<!-- invite_three_potential_neighbors&#45;&gt;resident_services -->
<g id="edge18" class="edge">
<title>invite_three_potential_neighbors&#45;&gt;resident_services</title>
<path fill="none" stroke="#000000" d="M644.2482,-431.9504C631.2388,-412.9175 609.153,-382.6141 586.1387,-360 574.8195,-348.8777 561.1493,-338.0812 548.775,-329.1026"/>
<polygon fill="#000000" stroke="#000000" points="550.6394,-326.1337 540.4601,-323.1954 546.5852,-331.8403 550.6394,-326.1337"/>
</g>
<!-- invite_three_potential_neighbors&#45;&gt;fences -->
<g id="edge24" class="edge">
<title>invite_three_potential_neighbors&#45;&gt;fences</title>
<path fill="none" stroke="#000000" d="M627.7117,-432.2022C610.9462,-421.7056 589.7058,-408.4072 572.4599,-397.6098"/>
<polygon fill="#000000" stroke="#000000" points="574.1836,-394.5596 563.8504,-392.2195 570.4689,-400.4927 574.1836,-394.5596"/>
</g>
<!-- resident_services&#45;&gt;town_hall -->
<g id="edge29" class="edge">
<title>resident_services&#45;&gt;town_hall</title>
<path fill="none" stroke="#000000" d="M493.6945,-288.4069C483.6252,-278.6611 472.1673,-265.7524 465.1387,-252 455.2969,-232.7432 450.5507,-208.6749 448.2632,-190.2742"/>
<polygon fill="#000000" stroke="#000000" points="451.7265,-189.7443 447.1805,-180.1743 444.7664,-190.4905 451.7265,-189.7443"/>
</g>
<!-- bridges -->
<g id="node22" class="node">
<title>bridges</title>
<ellipse fill="none" stroke="#000000" cx="513.1387" cy="-234" rx="39.4254" ry="18"/>
<text text-anchor="middle" x="513.1387" y="-229.8" font-family="Times,serif" font-size="14.00" fill="#000000">bridges</text>
</g>
<!-- resident_services&#45;&gt;bridges -->
<g id="edge21" class="edge">
<title>resident_services&#45;&gt;bridges</title>
<path fill="none" stroke="#000000" d="M513.8864,-287.8314C513.7794,-280.131 513.6522,-270.9743 513.5334,-262.4166"/>
<polygon fill="#000000" stroke="#000000" points="517.0331,-262.3637 513.3944,-252.4133 510.0337,-262.4609 517.0331,-262.3637"/>
</g>
<!-- inclines -->
<g id="node23" class="node">
<title>inclines</title>
<ellipse fill="none" stroke="#000000" cx="612.1387" cy="-234" rx="41.1471" ry="18"/>
<text text-anchor="middle" x="612.1387" y="-229.8" font-family="Times,serif" font-size="14.00" fill="#000000">inclines</text>
</g>
<!-- resident_services&#45;&gt;inclines -->
<g id="edge22" class="edge">
<title>resident_services&#45;&gt;inclines</title>
<path fill="none" stroke="#000000" d="M537.8618,-288.5708C551.4049,-278.6208 568.4956,-266.0643 582.8678,-255.5052"/>
<polygon fill="#000000" stroke="#000000" points="584.9819,-258.2951 590.9684,-249.5537 580.8373,-252.6539 584.9819,-258.2951"/>
</g>
<!-- isabelle -->
<g id="node21" class="node">
<title>isabelle</title>
<ellipse fill="none" stroke="#000000" cx="625.1387" cy="-90" rx="40.5635" ry="18"/>
<text text-anchor="middle" x="625.1387" y="-85.8" font-family="Times,serif" font-size="14.00" fill="#000000">isabelle</text>
</g>
<!-- town_hall&#45;&gt;isabelle -->
<g id="edge20" class="edge">
<title>town_hall&#45;&gt;isabelle</title>
<path fill="none" stroke="#000000" d="M479.3877,-148.6261C509.441,-136.5376 553.7249,-118.7251 585.586,-105.9094"/>
<polygon fill="#000000" stroke="#000000" points="587.0742,-109.0835 595.0457,-102.1045 584.4619,-102.5891 587.0742,-109.0835"/>
</g>
<!-- kicks -->
<g id="node30" class="node">
<title>kicks</title>
<ellipse fill="none" stroke="#000000" cx="412.1387" cy="-90" rx="31.339" ry="18"/>
<text text-anchor="middle" x="412.1387" y="-85.8" font-family="Times,serif" font-size="14.00" fill="#000000">kicks</text>
</g>
<!-- town_hall&#45;&gt;kicks -->
<g id="edge32" class="edge">
<title>town_hall&#45;&gt;kicks</title>
<path fill="none" stroke="#000000" d="M437.7342,-144.2022C433.8228,-135.9192 429.0874,-125.8915 424.7587,-116.7248"/>
<polygon fill="#000000" stroke="#000000" points="427.8815,-115.141 420.4465,-107.593 421.5518,-118.1301 427.8815,-115.141"/>
</g>
<!-- kk_slider -->
<g id="node26" class="node">
<title>kk_slider</title>
<ellipse fill="none" stroke="#000000" cx="569.1387" cy="-18" rx="46.9497" ry="18"/>
<text text-anchor="middle" x="569.1387" y="-13.8" font-family="Times,serif" font-size="14.00" fill="#000000">kk_slider</text>
</g>
<!-- isabelle&#45;&gt;kk_slider -->
<g id="edge26" class="edge">
<title>isabelle&#45;&gt;kk_slider</title>
<path fill="none" stroke="#000000" d="M611.8675,-72.937C605.0632,-64.1886 596.6366,-53.3545 589.0697,-43.6256"/>
<polygon fill="#000000" stroke="#000000" points="591.6058,-41.1854 582.7037,-35.4407 586.0804,-45.483 591.6058,-41.1854"/>
</g>
<!-- bridges&#45;&gt;town_hall -->
<g id="edge30" class="edge">
<title>bridges&#45;&gt;town_hall</title>
<path fill="none" stroke="#000000" d="M497.5991,-217.3008C489.097,-208.1641 478.4035,-196.6726 468.9701,-186.5353"/>
<polygon fill="#000000" stroke="#000000" points="471.4338,-184.045 462.0592,-179.1086 466.3093,-188.8137 471.4338,-184.045"/>
</g>
<!-- three_stars -->
<g id="node25" class="node">
<title>three_stars</title>
<ellipse fill="none" stroke="#000000" cx="514.1387" cy="-90" rx="52.7238" ry="18"/>
<text text-anchor="middle" x="514.1387" y="-85.8" font-family="Times,serif" font-size="14.00" fill="#000000">three_stars</text>
</g>
<!-- three_stars&#45;&gt;kk_slider -->
<g id="edge25" class="edge">
<title>three_stars&#45;&gt;kk_slider</title>
<path fill="none" stroke="#000000" d="M527.4527,-72.5708C534.0917,-63.8797 542.2497,-53.2001 549.5833,-43.5998"/>
<polygon fill="#000000" stroke="#000000" points="552.4676,-45.5896 555.7567,-35.5182 546.9049,-41.3403 552.4676,-45.5896"/>
</g>
<!-- island_designer_app -->
<g id="node27" class="node">
<title>island_designer_app</title>
<ellipse fill="none" stroke="#000000" cx="648.1387" cy="-738" rx="90.3333" ry="18"/>
<text text-anchor="middle" x="648.1387" y="-733.8" font-family="Times,serif" font-size="14.00" fill="#000000">island_designer_app</text>
</g>
<!-- paths -->
<g id="node28" class="node">
<title>paths</title>
<ellipse fill="none" stroke="#000000" cx="648.1387" cy="-666" rx="31.339" ry="18"/>
<text text-anchor="middle" x="648.1387" y="-661.8" font-family="Times,serif" font-size="14.00" fill="#000000">paths</text>
</g>
<!-- island_designer_app&#45;&gt;paths -->
<g id="edge27" class="edge">
<title>island_designer_app&#45;&gt;paths</title>
<path fill="none" stroke="#000000" d="M648.1387,-719.8314C648.1387,-712.131 648.1387,-702.9743 648.1387,-694.4166"/>
<polygon fill="#000000" stroke="#000000" points="651.6388,-694.4132 648.1387,-684.4133 644.6388,-694.4133 651.6388,-694.4132"/>
</g>
</g>
</svg>